<svg viewBox="0 0 20 24" xmlns="http://www.w3.org/2000/svg" shape-rendering="crispEdges">
  <rect x="0" y="0" width="20" height="5" fill="#607D8B"/>
  <circle cx="2.5" cy="2.5" r="1.2" fill="#4CAF50"/>
  <rect x="5" y="1.5" width="1.5" height="2" fill="#455A64"/>
  <rect x="7.5" y="1.5" width="1.5" height="2" fill="#455A64"/>
  <rect x="10" y="1.5" width="1.5" height="2" fill="#455A64"/>
  <circle cx="15" cy="2.5" r="1.8" fill="#455A64"/>
  <rect x="14.6" y="0.8" width="0.8" height="1" fill="#B0BEC5"/>
  <rect x="0" y="5" width="20" height="16" fill="#FAFAFA"/>
  <rect x="0" y="5" width="1" height="16" fill="#CFD8DC"/>
  <rect x="19" y="5" width="1" height="16" fill="#CFD8DC"/>
  <circle cx="10" cy="12" r="6.5" fill="#546E7A"/>
  <circle cx="10" cy="12" r="5.8" fill="#37474F"/>
  <circle cx="10" cy="12" r="5" fill="#81D4FA"/>
  <rect x="7" y="9.5" width="2.8" height="2.2" rx="0.4" fill="#FF7043"/>
  <rect x="10.5" y="11.5" width="2.8" height="2" rx="0.4" fill="#26A69A"/>
  <rect x="7.5" y="13.5" width="2.2" height="2.2" rx="0.4" fill="#FFF176"/>
  <circle cx="8" cy="10" r="1.3" fill="white" opacity="0.35"/>
  <rect x="15.5" y="11.5" width="1" height="1" fill="#B0BEC5"/>
  <rect x="15.5" y="13" width="1" height="1" fill="#B0BEC5"/>
  <rect x="0" y="21" width="20" height="3" fill="#607D8B"/>
  <rect x="3" y="22" width="2" height="1" fill="#455A64"/>
  <rect x="8" y="22" width="2" height="1" fill="#455A64"/>
</svg>