<svg viewBox="0 0 18 32" xmlns="http://www.w3.org/2000/svg" shape-rendering="crispEdges">
  <rect x="0" y="0" width="18" height="32" fill="#263238"/>
  <rect x="1" y="0" width="16" height="31" fill="#37474F"/>
  <rect x="1" y="0" width="16" height="3" fill="#1565C0"/>
  <rect x="2" y="1" width="12" height="2" fill="#FFD700"/>
  <rect x="3" y="1.3" width="3" height="1" fill="#FFF176"/>
  <rect x="7" y="1.3" width="3" height="1" fill="#FFF176"/>
  <rect x="2" y="3" width="12" height="14" fill="#0D47A1"/>
  <rect x="3" y="4" width="10" height="12" fill="#B3E5FC"/>
  <rect x="3.5" y="4.5" width="2.5" height="2.5" fill="#FF9800"/>
  <rect x="7" y="4.5" width="2.5" height="2.5" fill="#FFA726"/>
  <rect x="10.5" y="4.5" width="2" height="2.5" fill="#F57C00"/>
  <rect x="3" y="7" width="10" height="0.5" fill="#64B5F6"/>
  <rect x="3.5" y="7.5" width="2.5" height="2.5" fill="#E91E63"/>
  <rect x="7" y="7.5" width="2.5" height="2.5" fill="#FF4081"/>
  <rect x="10.5" y="7.5" width="2" height="2.5" fill="#F06292"/>
  <rect x="3" y="10" width="10" height="0.5" fill="#64B5F6"/>
  <rect x="3.5" y="10.5" width="2" height="3" fill="#EF5350"/>
  <rect x="6.5" y="10.5" width="2" height="3" fill="#2196F3"/>
  <rect x="10" y="10.5" width="2" height="3" fill="#4CAF50"/>
  <rect x="3" y="4" width="1" height="12" fill="#E1F5FE" opacity="0.3"/>
  <rect x="2" y="18" width="15" height="10" fill="#455A64"/>
  <rect x="2.5" y="18.5" width="8" height="3.5" fill="#002200"/>
  <rect x="3" y="19" width="7" height="2.5" fill="#003300"/>
  <rect x="3.5" y="19.5" width="1" height="1" fill="#00E676"/>
  <rect x="5" y="19.5" width="0.5" height="1" fill="#00E676"/>
  <rect x="6" y="19.5" width="1.5" height="1" fill="#00E676"/>
  <rect x="8" y="19.5" width="0.5" height="1" fill="#00E676"/>
  <rect x="11" y="19" width="5" height="1" fill="#546E7A"/>
  <rect x="11" y="19.5" width="5" height="0.5" fill="#263238"/>
  <rect x="11" y="21" width="5" height="3" fill="#B71C1C"/>
  <rect x="11.5" y="21.5" width="4" height="2" fill="#EF5350"/>
  <rect x="2.5" y="22" width="2" height="2" fill="#4CAF50"/>
  <rect x="5" y="22" width="2" height="2" fill="#FF9800"/>
  <rect x="7.5" y="22" width="2" height="2" fill="#2196F3"/>
  <rect x="10.5" y="22" width="2" height="2" fill="#9C27B0"/>
  <rect x="1" y="26" width="16" height="2.5" fill="#1A1A2E"/>
  <rect x="1.5" y="26.5" width="15" height="1.5" fill="#000D1A"/>
  <rect x="1" y="28.5" width="16" height="1" fill="#546E7A"/>
  <rect x="0" y="29.5" width="18" height="1.5" fill="#1C2B33"/>
  <rect x="0" y="0" width="1" height="32" fill="#546E7A"/>
</svg>