<svg xmlns="http://www.w3.org/2000/svg" viewBox="0 0 16 16" shape-rendering="crispEdges">
  <rect x="0" y="3" width="16" height="10" fill="#1B5E20"/>
  <rect x="1" y="4" width="14" height="8" fill="#4CAF50"/>
  <rect x="1" y="4" width="14" height="1" fill="#2E7D32"/>
  <rect x="1" y="11" width="14" height="1" fill="#2E7D32"/>
  <rect x="2" y="5" width="2" height="2" fill="#2E7D32"/>
  <rect x="12" y="5" width="2" height="2" fill="#2E7D32"/>
  <rect x="2" y="9" width="2" height="2" fill="#2E7D32"/>
  <rect x="12" y="9" width="2" height="2" fill="#2E7D32"/>
  <rect x="5" y="5" width="6" height="6" fill="#FFFFFF"/>
  <rect x="4" y="6" width="8" height="4" fill="#FFFFFF"/>
  <rect x="6" y="5" width="3" height="1" fill="#1B5E20"/>
  <rect x="5" y="6" width="2" height="1" fill="#1B5E20"/>
  <rect x="5" y="7" width="5" height="1" fill="#1B5E20"/>
  <rect x="8" y="8" width="2" height="1" fill="#1B5E20"/>
  <rect x="6" y="9" width="3" height="1" fill="#1B5E20"/>
  <rect x="7" y="5" width="1" height="5" fill="#1B5E20"/>
</svg>
