<svg xmlns="http://www.w3.org/2000/svg" viewBox="0 0 64 64"><rect x="8" y="26" width="48" height="26" rx="1.5" fill="#F4ECDA" stroke="#5E4632" stroke-width="2"/><path d="M6 27 L16 17 L48 17 L58 27 Z" fill="#5E6E7E" stroke="#5E4632" stroke-width="2" stroke-linejoin="round"/><rect x="13" y="12" width="4" height="7" fill="#8A6A52" stroke="#5E4632" stroke-width="1"/><rect x="47" y="12" width="4" height="7" fill="#8A6A52" stroke="#5E4632" stroke-width="1"/><path d="M24 40 L32 33 L40 40 Z" fill="#FAF6EC" stroke="#5E4632" stroke-width="1.4"/><rect x="25" y="40" width="2" height="12" fill="#FAF6EC" stroke="#5E4632" stroke-width="0.9"/><rect x="37" y="40" width="2" height="12" fill="#FAF6EC" stroke="#5E4632" stroke-width="0.9"/><rect x="29" y="42" width="6" height="10" rx="0.5" fill="#6E4A30" stroke="#5E4632" stroke-width="1.3"/><line x1="32" y1="42" x2="32" y2="52" stroke="#4A3A2A" stroke-width="0.6"/><rect x="13" y="30" width="6" height="6" fill="#A6D8EA" stroke="#5E4632" stroke-width="1.3"/><rect x="29" y="30" width="6" height="6" fill="#A6D8EA" stroke="#5E4632" stroke-width="1.3"/><rect x="45" y="30" width="6" height="6" fill="#A6D8EA" stroke="#5E4632" stroke-width="1.3"/><rect x="13" y="42" width="6" height="6" fill="#A6D8EA" stroke="#5E4632" stroke-width="1.3"/><rect x="45" y="42" width="6" height="6" fill="#A6D8EA" stroke="#5E4632" stroke-width="1.3"/></svg>