<svg xmlns="http://www.w3.org/2000/svg" viewBox="0 0 16 16" shape-rendering="crispEdges">
  <rect x="0" y="6" width="16" height="6" fill="#3060A0"/>
  <rect x="0" y="6" width="16" height="1" fill="#204080"/>
  <rect x="0" y="9" width="16" height="1" fill="#204080"/>
  <rect x="0" y="11" width="16" height="1" fill="#204080"/>
  <rect x="5" y="6" width="1" height="6" fill="#204080"/>
  <rect x="10" y="6" width="1" height="6" fill="#204080"/>
  <rect x="1" y="7" width="4" height="2" fill="#4070B0"/>
  <rect x="6" y="7" width="4" height="2" fill="#4070B0"/>
  <rect x="11" y="7" width="4" height="2" fill="#4070B0"/>
  <rect x="7" y="1" width="2" height="1" fill="#F0C040"/>
  <rect x="6" y="2" width="4" height="1" fill="#F0C040"/>
  <rect x="5" y="3" width="6" height="1" fill="#F0C040"/>
  <rect x="7" y="0" width="2" height="1" fill="#F0C040"/>
  <rect x="10" y="2" width="3" height="1" fill="#F0C040"/>
  <rect x="3" y="2" width="3" height="1" fill="#F0C040"/>
</svg>