<svg xmlns="http://www.w3.org/2000/svg" viewBox="0 0 64 64"><rect x="15" y="28" width="34" height="24" rx="1.5" fill="#F4EFE4" stroke="#5E4632" stroke-width="2"/><path d="M12 29 L32 16 L52 29 Z" fill="#6E7E8C" stroke="#5E4632" stroke-width="2" stroke-linejoin="round"/><rect x="41" y="18" width="4" height="9" fill="#9A6A4A" stroke="#5E4632" stroke-width="1.2"/><path d="M28 42 L32 38 L36 42 Z" fill="#E2DAC8" stroke="#5E4632" stroke-width="1.2"/><rect x="29" y="42" width="6" height="10" rx="1" fill="#7C4A2C" stroke="#5E4632" stroke-width="1.5"/><rect x="19" y="31" width="6" height="6" rx="0.5" fill="#A6D8EA" stroke="#5E4632" stroke-width="1.3"/><rect x="39" y="31" width="6" height="6" rx="0.5" fill="#A6D8EA" stroke="#5E4632" stroke-width="1.3"/><rect x="19" y="42" width="6" height="6" rx="0.5" fill="#A6D8EA" stroke="#5E4632" stroke-width="1.3"/><rect x="39" y="42" width="6" height="6" rx="0.5" fill="#A6D8EA" stroke="#5E4632" stroke-width="1.3"/><rect x="17.2" y="31" width="1.6" height="6" fill="#4F6B3E"/><rect x="25.2" y="31" width="1.6" height="6" fill="#4F6B3E"/><rect x="37.2" y="31" width="1.6" height="6" fill="#4F6B3E"/><rect x="45.2" y="31" width="1.6" height="6" fill="#4F6B3E"/></svg>