<svg xmlns="http://www.w3.org/2000/svg" viewBox="0 0 64 64"><rect x="15" y="28" width="34" height="24" rx="1.5" fill="#CFC6B4" stroke="#4A3A2A" stroke-width="2"/><polyline points="24,29 26,35 23,41" fill="none" stroke="#8A7C64" stroke-width="1"/><path d="M12 29 L32 16 L52 29 Z" fill="#525E68" stroke="#4A3A2A" stroke-width="2" stroke-linejoin="round"/><polygon points="29,21 34,21 32,26 27,26" fill="#3A4248"/><rect x="41" y="18" width="4" height="9" fill="#6A4A34" stroke="#4A3A2A" stroke-width="1.2" transform="rotate(7 43 22)"/><rect x="29" y="42" width="6" height="10" rx="1" fill="#5A3A22" stroke="#4A3A2A" stroke-width="1.5"/><rect x="19" y="31" width="6" height="6" rx="0.5" fill="#3E4A4E" stroke="#4A3A2A" stroke-width="1.3"/><rect x="18" y="32.5" width="9" height="1.6" fill="#8A5A36"/><rect x="39" y="31" width="6" height="6" rx="0.5" fill="#5E7E86" stroke="#4A3A2A" stroke-width="1.3"/><path d="M39 31 L42 34 L40 37" fill="none" stroke="#D8E6EA" stroke-width="0.6"/><rect x="19" y="42" width="6" height="6" rx="0.5" fill="#5E7E86" stroke="#4A3A2A" stroke-width="1.3"/><rect x="39" y="42" width="6" height="6" rx="0.5" fill="#3E4A4E" stroke="#4A3A2A" stroke-width="1.3"/><rect x="45.2" y="42" width="1.6" height="6" fill="#5A6B4E" transform="rotate(14 46 45)"/></svg>