<svg xmlns="http://www.w3.org/2000/svg" viewBox="0 0 64 64"><rect x="9" y="34" width="46" height="18" rx="2" fill="#C3B391" stroke="#4A3A2A" stroke-width="2"/><rect x="33" y="34" width="22" height="18" fill="#B0A47E"/><rect x="31" y="34" width="2" height="18" fill="#897043"/><path d="M7 35 L20 24 L33 35 Z" fill="#9A7048" stroke="#4A3A2A" stroke-width="2" stroke-linejoin="round"/><polygon points="17,28 22,28 20,33 15,33" fill="#5A4632"/><path d="M31 35 L44 24 L57 35 Z" fill="#8C6A4A" stroke="#4A3A2A" stroke-width="2" stroke-linejoin="round"/><rect x="14" y="42" width="6" height="10" rx="1" fill="#5A3A22" stroke="#4A3A2A" stroke-width="1.4"/><rect x="40" y="42" width="6" height="10" rx="1" fill="#5A3A22" stroke="#4A3A2A" stroke-width="1.4"/><rect x="23" y="38" width="6" height="6" rx="0.5" fill="#3E4A4E" stroke="#4A3A2A" stroke-width="1.3"/><rect x="22" y="39.4" width="8" height="1.6" fill="#8A5A36"/><rect x="35" y="38" width="6" height="6" rx="0.5" fill="#5E7E86" stroke="#4A3A2A" stroke-width="1.3"/><path d="M35 38 L38 41" fill="none" stroke="#D8E6EA" stroke-width="0.6"/></svg>