<svg xmlns="http://www.w3.org/2000/svg" viewBox="0 0 64 64"><rect x="14" y="16" width="36" height="36" rx="1.5" fill="#A6ADB4" stroke="#4A3A2A" stroke-width="2"/><polyline points="24,17 22,30 25,44" fill="none" stroke="#7E858C" stroke-width="1"/><rect x="33" y="40" width="10" height="6" fill="#8C7E66" opacity="0.5"/><rect x="12" y="14" width="40" height="4" rx="1" fill="#6E767E" stroke="#4A3A2A" stroke-width="1.5"/><rect x="18" y="20" width="5" height="5" fill="#3E4A4E" stroke="#4A3A2A" stroke-width="1"/><rect x="29" y="20" width="5" height="5" fill="#5E7E86" stroke="#4A3A2A" stroke-width="1"/><rect x="40" y="20" width="5" height="5" fill="#3E4A4E" stroke="#4A3A2A" stroke-width="1"/><rect x="39" y="21.4" width="7" height="1.4" fill="#8A5A36"/><rect x="18" y="29" width="5" height="5" fill="#5E7E86" stroke="#4A3A2A" stroke-width="1"/><rect x="29" y="29" width="5" height="5" fill="#3E4A4E" stroke="#4A3A2A" stroke-width="1"/><rect x="40" y="29" width="5" height="5" fill="#5E7E86" stroke="#4A3A2A" stroke-width="1"/><rect x="18" y="38" width="5" height="5" fill="#3E4A4E" stroke="#4A3A2A" stroke-width="1"/><rect x="40" y="38" width="5" height="5" fill="#5E7E86" stroke="#4A3A2A" stroke-width="1"/><rect x="28" y="44" width="8" height="8" rx="0.5" fill="#4A3628" stroke="#4A3A2A" stroke-width="1.3"/></svg>