<svg xmlns="http://www.w3.org/2000/svg" viewBox="0 0 64 64"><rect x="8" y="26" width="48" height="26" rx="1.5" fill="#CFC6B4" stroke="#4A3A2A" stroke-width="2"/><polyline points="14,27 16,34 13,40" fill="none" stroke="#8A7C64" stroke-width="1"/><path d="M6 27 L16 17 L48 17 L58 27 Z" fill="#525E68" stroke="#4A3A2A" stroke-width="2" stroke-linejoin="round"/><polygon points="28,19 34,19 32,24 26,24" fill="#3A4248"/><rect x="13" y="12" width="4" height="7" fill="#6A4A34" stroke="#4A3A2A" stroke-width="1" transform="rotate(8 15 15)"/><path d="M24 40 L32 33 L40 40 Z" fill="#D8D0BE" stroke="#4A3A2A" stroke-width="1.4"/><rect x="25" y="40" width="2" height="12" fill="#C2BAA6" stroke="#4A3A2A" stroke-width="0.9"/><rect x="37" y="40" width="2.4" height="12" fill="#C2BAA6" stroke="#4A3A2A" stroke-width="0.9" transform="rotate(9 38 46)"/><rect x="29" y="42" width="6" height="10" rx="0.5" fill="#46342A" stroke="#4A3A2A" stroke-width="1.3"/><rect x="13" y="30" width="6" height="6" fill="#3E4A4E" stroke="#4A3A2A" stroke-width="1.3"/><rect x="12" y="31.6" width="8" height="1.6" fill="#8A5A36"/><rect x="29" y="30" width="6" height="6" fill="#5E7E86" stroke="#4A3A2A" stroke-width="1.3"/><path d="M29 30 L32 33 L30 36" fill="none" stroke="#D8E6EA" stroke-width="0.6"/><rect x="45" y="30" width="6" height="6" fill="#3E4A4E" stroke="#4A3A2A" stroke-width="1.3"/><rect x="13" y="42" width="6" height="6" fill="#5E7E86" stroke="#4A3A2A" stroke-width="1.3"/><rect x="45" y="42" width="6" height="6" fill="#5A6B4E"/></svg>