<svg xmlns="http://www.w3.org/2000/svg" viewBox="0 0 64 64"><rect x="14" y="32" width="36" height="21" rx="2" fill="#C3B391" stroke="#4A3A2A" stroke-width="2"/><polyline points="20,33 22,38 19,43" fill="none" stroke="#7A6A52" stroke-width="1"/><path d="M9 33 L32 16 L55 33 Z" fill="#8C6A4A" stroke="#4A3A2A" stroke-width="2" stroke-linejoin="round"/><polygon points="30,22 35,22 33,27 28,27" fill="#5A4632"/><rect x="40" y="18" width="5" height="11" rx="1" fill="#7A4A34" stroke="#4A3A2A" stroke-width="1.5" transform="rotate(6 42 23)"/><rect x="29" y="41" width="7" height="12" rx="1" fill="#5A3A22" stroke="#4A3A2A" stroke-width="1.5"/><rect x="18" y="37" width="8" height="8" rx="1" fill="#3E4A4E" stroke="#4A3A2A" stroke-width="1.5"/><rect x="16" y="39" width="12" height="2" fill="#8A5A36"/><rect x="16" y="42.5" width="12" height="2" fill="#8A5A36"/><rect x="40" y="37" width="8" height="8" rx="1" fill="#5E7E86" stroke="#4A3A2A" stroke-width="1.5"/><path d="M40 37 L44 41 L41 45" fill="none" stroke="#D8E6EA" stroke-width="0.7"/></svg>