<svg xmlns="http://www.w3.org/2000/svg" viewBox="0 0 16 16" shape-rendering="crispEdges">
  <rect x="2" y="2" width="12" height="12" fill="#C04040"/>
  <rect x="1" y="4" width="14" height="8" fill="#C04040"/>
  <rect x="3" y="1" width="10" height="14" fill="#C04040"/>
  <rect x="3" y="3" width="3" height="3" fill="#FFFFFF"/>
  <rect x="4" y="4" width="2" height="2" fill="#FFFFFF"/>
  <rect x="5" y="5" width="2" height="2" fill="#FFFFFF"/>
  <rect x="6" y="6" width="4" height="4" fill="#FFFFFF"/>
  <rect x="9" y="5" width="2" height="2" fill="#FFFFFF"/>
  <rect x="10" y="4" width="2" height="2" fill="#FFFFFF"/>
  <rect x="11" y="3" width="2" height="3" fill="#FFFFFF"/>
  <rect x="5" y="9" width="2" height="2" fill="#FFFFFF"/>
  <rect x="4" y="10" width="2" height="2" fill="#FFFFFF"/>
  <rect x="3" y="11" width="2" height="2" fill="#FFFFFF"/>
  <rect x="9" y="9" width="2" height="2" fill="#FFFFFF"/>
  <rect x="10" y="10" width="2" height="2" fill="#FFFFFF"/>
  <rect x="11" y="11" width="2" height="2" fill="#FFFFFF"/>
</svg>